<svg width="341" height="139" viewBox="0 0 341 139" fill="none" xmlns="http://www.w3.org/2000/svg">
<g filter="url(#filter0_d_91_3640)">
<path d="M121.528 80.4037C122.961 81.3774 124.507 82.1747 126.131 82.7782C127.45 83.2707 128.843 83.5331 130.25 83.5538C131.93 83.5538 133.222 83.1823 134.127 82.4392C134.575 82.0705 134.93 81.6026 135.166 81.0728C135.401 80.5429 135.51 79.9655 135.484 79.3863C135.51 78.2935 135.11 77.2335 134.37 76.4298C133.441 75.4963 132.338 74.7552 131.123 74.2492C129.352 73.4724 127.54 72.7928 125.695 72.2137C123.628 71.439 121.62 70.516 119.686 69.4518C117.782 68.4162 116.14 66.9571 114.889 65.1871C113.629 63.4108 112.999 61.1332 112.999 58.3543C112.926 55.9322 113.677 53.5571 115.131 51.6183C116.629 49.7207 118.626 48.2777 120.898 47.4508C123.485 46.4852 126.229 46.0087 128.99 46.0454C131.383 46.0284 133.766 46.3548 136.066 47.0146C138.193 47.6323 140.242 48.4942 142.172 49.5829C143.979 50.5998 145.642 51.8548 147.115 53.3144L141.59 61.068C139.947 59.3035 137.992 57.8577 135.823 56.8035C133.799 55.7562 131.56 55.1923 129.281 55.156C127.859 55.156 126.745 55.4306 125.938 55.9797C125.539 56.2517 125.218 56.6224 125.006 57.0556C124.793 57.4888 124.697 57.9697 124.726 58.4513C124.731 58.9415 124.841 59.4248 125.05 59.8681C125.26 60.3115 125.562 60.7043 125.938 61.0196C126.967 61.8926 128.15 62.5664 129.427 63.0066C130.944 63.588 132.672 64.2986 134.612 65.1387C136.896 65.9952 139.114 67.0156 141.251 68.1918C143.171 69.223 144.841 70.662 146.145 72.4077C147.372 74.0886 147.986 76.2855 147.987 78.9983C147.987 83.4566 146.533 86.9296 143.625 89.4174C140.718 91.9036 136.712 93.1474 131.607 93.1487C126.016 93.2207 120.53 91.6173 115.858 88.5451C113.835 87.218 111.937 85.7095 110.188 84.0382L116.294 76.1876C117.92 77.7342 119.67 79.1443 121.528 80.4037V80.4037Z" fill="white"/>
<path d="M164.462 81.0821C165.127 82.0348 166.052 82.7753 167.128 83.2145C168.309 83.7089 169.579 83.9562 170.859 83.941C172.676 83.9698 174.473 83.5541 176.093 82.7301C177.642 81.9248 178.946 80.72 179.873 79.2406C180.877 77.5946 181.382 75.6924 181.327 73.7649L182.877 79.58C182.877 82.4236 182.085 84.8142 180.503 86.7518C178.884 88.715 176.779 90.2191 174.397 91.1136C171.91 92.0823 169.264 92.5754 166.595 92.5672C163.921 92.5894 161.275 92.0271 158.841 90.9196C156.517 89.8772 154.522 88.2179 153.074 86.122C151.621 84.0234 150.894 81.455 150.894 78.4168C150.894 74.0887 152.412 70.6642 155.449 68.1433C158.485 65.6233 162.782 64.3634 168.339 64.3634C170.87 64.3261 173.396 64.6193 175.851 65.2358C177.758 65.7164 179.597 66.4326 181.327 67.3679C182.524 67.9852 183.607 68.805 184.525 69.791V75.6061C182.755 74.302 180.771 73.318 178.662 72.6986C176.443 72.0454 174.141 71.7189 171.828 71.7294C170.214 71.6767 168.604 71.9232 167.079 72.4564C165.986 72.8381 165.038 73.5491 164.365 74.4915C163.778 75.4942 163.477 76.6385 163.494 77.8003C163.511 78.9622 163.846 80.0972 164.462 81.0821V81.0821ZM153.995 51.0854C156.74 49.6831 159.592 48.5002 162.524 47.5479C166.155 46.3757 169.952 45.8028 173.767 45.8517C177.23 45.7941 180.676 46.352 183.944 47.4992C186.914 48.5988 189.24 50.198 190.922 52.2969C192.601 54.3973 193.441 56.9657 193.442 60.0021V91.598H181.327V62.6188C181.355 61.5398 181.157 60.4667 180.745 59.4689C180.354 58.5938 179.735 57.8403 178.952 57.2882C178.091 56.6837 177.12 56.2554 176.093 56.0282C174.884 55.7585 173.648 55.6284 172.41 55.6406C168.699 55.6385 165.03 56.4317 161.652 57.9668C160.61 58.4384 159.605 58.9892 158.647 59.6143L153.995 51.0854Z" fill="white"/>
<path d="M215.636 16V91.5979H203.037V16H215.636Z" fill="white"/>
<path d="M240.738 80.8881C241.901 82.4722 243.775 83.2639 246.359 83.2631C247.996 83.3048 249.616 82.9208 251.06 82.1485C252.374 81.4162 253.45 80.323 254.161 78.9984C254.937 77.5033 255.321 75.8358 255.276 74.1521V47.0146H267.779V91.598H255.276V84.8134C254.002 87.1772 252.131 89.1657 249.848 90.5807C247.651 91.9037 244.97 92.5658 241.804 92.5672C236.505 92.5672 232.548 91.0489 229.932 88.0121C227.315 84.9757 226.006 80.8081 226.006 75.5093V47.0146H238.994V74.1521C238.994 77.06 239.575 79.3054 240.738 80.8881Z" fill="white"/>
<path d="M319.146 47.0146L302.669 68.6279L320.115 91.598H306.256L296.176 77.4476L286.29 91.598H271.946L289.585 68.6279L272.915 47.0147H287.259L296.176 59.9051L305.286 47.0147L319.146 47.0146Z" fill="white"/>
<path d="M230.243 110.822V100.064H226.834V98.2949H235.641V100.064H232.224V110.822H230.243Z" fill="white"/>
<path d="M240.112 111.065C239.335 111.078 238.568 110.892 237.884 110.526C237.244 110.181 236.707 109.673 236.328 109.053C235.942 108.42 235.744 107.691 235.754 106.95C235.75 106.394 235.861 105.844 236.081 105.333C236.512 104.331 237.319 103.538 238.328 103.124C238.853 102.908 239.416 102.8 239.983 102.805C240.724 102.788 241.457 102.961 242.113 103.306C242.71 103.628 243.205 104.112 243.54 104.703C243.892 105.341 244.069 106.062 244.052 106.791C244.053 106.845 244.05 106.9 244.045 106.954C244.04 106.997 244.03 107.069 244.014 107.17H237.683C237.673 107.605 237.784 108.035 238.002 108.411C238.214 108.768 238.524 109.058 238.894 109.246C239.302 109.452 239.754 109.555 240.211 109.546C240.647 109.554 241.078 109.457 241.467 109.262C241.86 109.049 242.201 108.753 242.466 108.392L243.84 109.098C243.472 109.714 242.94 110.215 242.303 110.545C241.627 110.896 240.874 111.075 240.112 111.065V111.065ZM237.766 105.986H242.177C242.123 105.655 241.987 105.344 241.783 105.078C241.579 104.813 241.313 104.602 241.008 104.463C240.684 104.316 240.331 104.242 239.975 104.247C239.608 104.241 239.243 104.313 238.905 104.46C238.603 104.592 238.339 104.798 238.138 105.059C237.936 105.33 237.807 105.65 237.766 105.986V105.986Z" fill="white"/>
<path d="M249.967 111.065C249.399 111.068 248.835 110.961 248.308 110.749C247.8 110.546 247.335 110.249 246.938 109.873C246.544 109.5 246.228 109.054 246.008 108.559C245.78 108.048 245.665 107.494 245.67 106.935C245.666 106.388 245.776 105.846 245.992 105.344C246.204 104.85 246.511 104.402 246.896 104.027C247.29 103.643 247.754 103.339 248.262 103.131C248.801 102.911 249.377 102.8 249.959 102.805C250.452 102.803 250.942 102.877 251.413 103.025C251.828 103.147 252.217 103.342 252.563 103.602L251.887 104.877C251.445 104.575 250.927 104.4 250.391 104.372C249.855 104.345 249.322 104.466 248.851 104.722C248.471 104.946 248.161 105.272 247.955 105.663C247.747 106.054 247.641 106.491 247.644 106.935C247.637 107.39 247.75 107.838 247.97 108.237C248.186 108.622 248.504 108.941 248.889 109.159C249.306 109.392 249.777 109.51 250.255 109.501C250.56 109.503 250.864 109.457 251.155 109.364C251.416 109.283 251.662 109.157 251.88 108.992L252.563 110.267C252.215 110.52 251.828 110.714 251.417 110.841C250.948 110.992 250.459 111.067 249.967 111.065Z" fill="white"/>
<path d="M254.627 110.821V97.7559H256.518V103.981C256.807 103.621 257.174 103.331 257.592 103.135C258.072 102.907 258.599 102.794 259.13 102.804C259.677 102.792 260.218 102.924 260.697 103.188C261.142 103.44 261.505 103.816 261.741 104.269C262 104.782 262.128 105.351 262.113 105.924V110.821H260.223V106.319C260.258 105.777 260.086 105.241 259.741 104.82C259.57 104.641 259.362 104.501 259.132 104.41C258.903 104.319 258.656 104.279 258.409 104.292C258.057 104.283 257.709 104.365 257.399 104.531C257.127 104.68 256.901 104.9 256.746 105.169C256.593 105.439 256.514 105.744 256.518 106.054V110.821H254.627Z" fill="white"/>
<path d="M264.899 110.822V103.048H266.79V103.981C267.079 103.621 267.446 103.331 267.864 103.135C268.344 102.907 268.871 102.794 269.402 102.805C269.949 102.792 270.49 102.924 270.969 103.188C271.414 103.44 271.777 103.816 272.013 104.27C272.272 104.782 272.4 105.351 272.385 105.925V110.822H270.495V106.32C270.53 105.777 270.358 105.241 270.013 104.82C269.842 104.641 269.634 104.502 269.404 104.41C269.174 104.319 268.928 104.279 268.681 104.292C268.329 104.283 267.981 104.365 267.671 104.532C267.398 104.68 267.173 104.901 267.018 105.169C266.865 105.439 266.786 105.744 266.79 106.054V110.822H264.899Z" fill="white"/>
<path d="M278.99 111.064C278.201 111.076 277.42 110.897 276.716 110.541C276.059 110.208 275.504 109.705 275.11 109.083C274.723 108.433 274.518 107.689 274.518 106.932C274.518 106.175 274.723 105.432 275.11 104.782C275.504 104.163 276.058 103.661 276.712 103.328C277.421 102.984 278.199 102.804 278.988 102.804C279.776 102.804 280.554 102.984 281.264 103.328C281.919 103.659 282.473 104.161 282.865 104.782C283.251 105.433 283.454 106.176 283.454 106.932C283.454 107.689 283.251 108.432 282.865 109.083C282.474 109.705 281.92 110.209 281.264 110.541C280.559 110.897 279.779 111.076 278.99 111.064V111.064ZM278.99 109.44C279.437 109.447 279.878 109.336 280.269 109.117C280.641 108.907 280.949 108.6 281.161 108.229C281.375 107.83 281.488 107.384 281.488 106.931C281.488 106.478 281.375 106.032 281.161 105.632C280.95 105.262 280.641 104.956 280.269 104.748C279.876 104.538 279.437 104.429 278.992 104.429C278.546 104.429 278.108 104.538 277.714 104.748C277.34 104.955 277.03 105.261 276.818 105.632C276.604 106.032 276.492 106.478 276.492 106.931C276.492 107.384 276.604 107.829 276.818 108.229C277.031 108.601 277.34 108.908 277.714 109.117C278.104 109.335 278.544 109.446 278.99 109.44Z" fill="white"/>
<path d="M285.709 110.822V97.7634H287.6V110.822H285.709Z" fill="white"/>
<path d="M294.349 111.064C293.56 111.076 292.779 110.897 292.075 110.541C291.418 110.208 290.863 109.705 290.469 109.083C290.082 108.433 289.877 107.689 289.877 106.932C289.877 106.175 290.082 105.432 290.469 104.782C290.863 104.163 291.416 103.661 292.071 103.328C292.78 102.984 293.558 102.804 294.347 102.804C295.135 102.804 295.913 102.984 296.622 103.328C297.278 103.659 297.832 104.161 298.224 104.782C298.61 105.433 298.813 106.176 298.813 106.932C298.813 107.689 298.61 108.432 298.224 109.083C297.832 109.705 297.279 110.209 296.622 110.541C295.918 110.897 295.138 111.076 294.349 111.064ZM294.349 109.44C294.796 109.447 295.237 109.336 295.628 109.117C296 108.907 296.308 108.6 296.52 108.229C296.734 107.83 296.847 107.384 296.847 106.931C296.847 106.478 296.734 106.032 296.52 105.632C296.309 105.262 296 104.956 295.628 104.748C295.235 104.538 294.796 104.429 294.35 104.429C293.905 104.429 293.466 104.538 293.073 104.748C292.699 104.955 292.389 105.261 292.177 105.632C291.963 106.032 291.851 106.478 291.851 106.931C291.851 107.384 291.963 107.829 292.177 108.229C292.39 108.601 292.699 108.908 293.073 109.117C293.463 109.335 293.903 109.446 294.349 109.44V109.44Z" fill="white"/>
<path d="M304.726 114.997C303.83 115.026 302.94 114.828 302.141 114.42C301.453 114.049 300.91 113.455 300.604 112.735L302.152 111.991C302.387 112.423 302.747 112.773 303.185 112.997C303.659 113.249 304.189 113.378 304.726 113.372C305.182 113.382 305.633 113.28 306.04 113.076C306.411 112.886 306.722 112.596 306.936 112.238C307.16 111.849 307.273 111.407 307.262 110.958V109.576C306.933 110.04 306.497 110.418 305.991 110.677C305.484 110.936 304.923 111.069 304.354 111.065C303.672 111.072 303.001 110.888 302.419 110.533C301.834 110.176 301.354 109.671 301.029 109.068C300.691 108.41 300.515 107.681 300.513 106.941C300.511 106.202 300.684 105.472 301.018 104.812C301.339 104.209 301.816 103.701 302.399 103.343C303.002 102.979 303.695 102.792 304.4 102.805C304.972 102.799 305.538 102.929 306.051 103.184C306.54 103.424 306.957 103.788 307.262 104.239V103.048H309.152V111.034C309.17 111.762 308.998 112.483 308.655 113.126C308.315 113.728 307.796 114.211 307.171 114.507C306.404 114.857 305.568 115.024 304.726 114.997V114.997ZM304.893 109.447C305.335 109.456 305.771 109.345 306.154 109.125C306.515 108.912 306.812 108.605 307.011 108.236C307.217 107.834 307.324 107.389 307.323 106.938C307.322 106.486 307.214 106.041 307.008 105.64C306.808 105.269 306.512 104.96 306.15 104.744C305.77 104.533 305.342 104.422 304.907 104.422C304.471 104.422 304.043 104.533 303.663 104.744C303.3 104.958 303.004 105.268 302.806 105.64C302.602 106.042 302.495 106.487 302.494 106.938C302.494 107.389 302.599 107.834 302.802 108.236C302.998 108.605 303.293 108.912 303.652 109.125C304.028 109.344 304.458 109.455 304.893 109.447Z" fill="white"/>
<path d="M312.106 114.769L314.399 110.131L310.709 103.047H312.865L315.5 108.286L317.83 103.047H319.986L314.262 114.769H312.106Z" fill="white"/>
<path d="M33.2879 83.1208C33.2506 83.158 33.2146 83.1942 33.1792 83.2295L33.2879 83.1208Z" fill="white"/>
<path d="M32.7462 83.6631L32.6851 83.7243L32.7462 83.6631Z" fill="white"/>
<path d="M35.7127 73.2133C35.3076 71.5869 33.4089 68.5327 31.1385 65.2803C27.0546 71.1303 21.763 77.6246 21.763 77.6246C19.4599 80.4608 19.3798 83.8378 21.7203 86.1784C22.8626 87.3026 24.4033 87.9292 26.006 87.9212C27.6087 87.9132 29.1431 87.2713 30.2741 86.1357L32.4019 84.0078C32.4032 84.0061 36.8462 77.7644 35.7127 73.2133Z" fill="white"/>
<path d="M48.1125 60.9821C49.2481 62.1131 49.8899 63.6475 49.8979 65.2502C49.9059 66.8529 49.2794 68.3936 48.1551 69.5358C45.8146 71.8764 34.7335 82.9575 33.6831 84.0079C33.6831 84.0079 38.1275 77.7651 36.994 73.2133C35.8604 68.6616 23.0443 52.936 23.0443 52.936C20.7411 50.0998 20.6611 46.7228 23.0016 44.3823C24.1438 43.258 25.6846 42.6315 27.2873 42.6395C28.8899 42.6475 30.4243 43.2894 31.5553 44.425L48.1125 60.9821Z" fill="white"/>
<path d="M86.9961 83.1208C87.0334 83.158 87.0694 83.1942 87.1048 83.2295L86.9961 83.1208Z" fill="white"/>
<path d="M87.5391 83.6631L87.6001 83.7243L87.5391 83.6631Z" fill="white"/>
<path d="M84.5728 73.2133C84.9779 71.5869 86.8765 68.5327 89.1469 65.2803C93.2308 71.1303 98.5224 77.6246 98.5224 77.6246C100.826 80.4608 100.906 83.8378 98.5651 86.1784C97.4228 87.3026 95.8821 87.9292 94.2794 87.9212C92.6767 87.9132 91.1423 87.2713 90.0113 86.1357L87.8836 84.0078C87.8823 84.0061 83.4393 77.7644 84.5728 73.2133Z" fill="white"/>
<path d="M72.1732 60.9821C71.0376 62.1131 70.3958 63.6475 70.3878 65.2502C70.3798 66.8529 71.0063 68.3936 72.1306 69.5358C74.4711 71.8764 85.5523 82.9575 86.6026 84.0079C86.6026 84.0079 82.1582 77.7651 83.2918 73.2133C84.4253 68.6616 97.2414 52.936 97.2414 52.936C99.5446 50.0998 99.6247 46.7228 97.2841 44.3823C96.1419 43.258 94.6011 42.6315 92.9984 42.6395C91.3958 42.6475 89.8614 43.2894 88.7304 44.425L72.1732 60.9821Z" fill="white"/>
<path d="M77.9829 37.5718C78.0201 37.5346 78.0562 37.4985 78.0915 37.4631L77.9829 37.5718Z" fill="white"/>
<path d="M78.5259 37.0296L78.5871 36.9685L78.5259 37.0296Z" fill="white"/>
<path d="M68.0761 39.9962C66.4497 39.591 63.3955 37.6924 60.1431 35.422C65.9931 31.3381 72.4874 26.0465 72.4874 26.0465C75.3236 23.7433 78.7007 23.6633 81.0412 26.0037C82.1655 27.146 82.792 28.6867 82.784 30.2894C82.776 31.8921 82.1341 33.4266 80.9985 34.5576L78.8706 36.6853C78.869 36.6866 72.6273 41.1296 68.0761 39.9962Z" fill="white"/>
<path d="M55.8447 52.3959C56.9756 53.5315 58.51 54.1734 60.1127 54.1814C61.7154 54.1894 63.2561 53.5629 64.3984 52.4387C66.7389 50.0981 77.8201 39.0169 78.8705 37.9666C78.8705 37.9666 72.6276 42.4109 68.0758 41.2774C63.5241 40.1439 47.7985 27.3278 47.7985 27.3278C44.9624 25.0246 41.5853 24.9445 39.2447 27.2851C38.1205 28.4273 37.494 29.968 37.502 31.5707C37.51 33.1734 38.1519 34.7078 39.2875 35.8388L55.8447 52.3959Z" fill="white"/>
<path d="M77.5562 92.9878C77.5933 93.0251 77.6295 93.0611 77.6647 93.0965L77.5562 92.9878Z" fill="white"/>
<path d="M78.0986 93.5303L78.1597 93.5914L78.0986 93.5303Z" fill="white"/>
<path d="M67.6489 90.5645C66.0225 90.9696 62.9683 92.8682 59.7158 95.1386C65.5659 99.2225 72.0602 104.514 72.0602 104.514C74.8963 106.817 78.2734 106.897 80.614 104.557C81.7382 103.415 82.3648 101.874 82.3568 100.271C82.3488 98.6685 81.7068 97.134 80.5712 96.003L78.4434 93.8753C78.4417 93.874 72.2 89.431 67.6489 90.5645Z" fill="white"/>
<path d="M55.4174 78.165C56.5484 77.0294 58.0828 76.3875 59.6855 76.3795C61.2881 76.3715 62.8289 76.998 63.9711 78.1223C66.3116 80.4628 77.3929 91.544 78.4432 92.5943C78.4432 92.5943 72.2003 88.15 67.6486 89.2835C63.0969 90.417 47.3713 103.233 47.3713 103.233C44.5351 105.536 41.158 105.616 38.8175 103.276C37.6933 102.134 37.0668 100.593 37.0748 98.9902C37.0828 97.3875 37.7246 95.8531 38.8602 94.7221L55.4174 78.165Z" fill="white"/>
</g>
<defs>
<filter id="filter0_d_91_3640" x="0" y="0" width="340.115" height="139" filterUnits="userSpaceOnUse" color-interpolation-filters="sRGB">
<feFlood flood-opacity="0" result="BackgroundImageFix"/>
<feColorMatrix in="SourceAlpha" type="matrix" values="0 0 0 0 0 0 0 0 0 0 0 0 0 0 0 0 0 0 127 0" result="hardAlpha"/>
<feOffset dy="4"/>
<feGaussianBlur stdDeviation="10"/>
<feComposite in2="hardAlpha" operator="out"/>
<feColorMatrix type="matrix" values="0 0 0 0 0 0 0 0 0 0 0 0 0 0 0 0 0 0 0.25 0"/>
<feBlend mode="normal" in2="BackgroundImageFix" result="effect1_dropShadow_91_3640"/>
<feBlend mode="normal" in="SourceGraphic" in2="effect1_dropShadow_91_3640" result="shape"/>
</filter>
</defs>
</svg>
